<svg width="36" height="36" viewBox="0 0 36 36" fill="none" xmlns="http://www.w3.org/2000/svg">
<path d="M35.8981 18.0003C35.8981 27.8891 27.8818 35.9056 17.9931 35.9056C8.10432 35.9056 0.0879555 27.8891 0.0879555 18.0003C0.0879555 8.11162 8.10432 0.0952606 17.9931 0.0952606C27.8817 0.0952606 35.8981 8.11162 35.8981 18.0003Z" fill="white" fill-opacity="0.2"/>
<g opacity="0.8">
<path d="M17.935 9.69231L17.8244 10.0682V20.9759L17.935 21.0863L22.9983 18.0935L17.935 9.69231Z" fill="white"/>
<path d="M17.9393 9.69231L12.8761 18.0935L17.9393 21.0864V15.7921V9.69231Z" fill="white"/>
<path d="M17.9393 22.7337L17.8769 22.8097V26.6952L17.9393 26.8772L23.0056 19.7423L17.9393 22.7337Z" fill="white"/>
<path d="M17.9393 26.8773V22.7337L12.8761 19.7423L17.9393 26.8773Z" fill="white"/>
<path d="M17.9386 21.0863L23.0018 18.0935L17.9386 15.7921V21.0863Z" fill="white"/>
<path d="M12.8761 18.0935L17.9392 21.0863V15.7921L12.8761 18.0935Z" fill="white"/>
</g>
</svg>
