<svg width="25" height="24" viewBox="0 0 25 24" fill="none" xmlns="http://www.w3.org/2000/svg">
<path fill-rule="evenodd" clip-rule="evenodd" d="M22.4 3.8172L22.4 20.181L21.4909 21L17.8546 21L16.9455 20.181L16.9455 3.819L17.8546 3L21.4909 3L22.4 3.8172ZM18.7636 4.6362L18.7636 19.3638L20.5818 19.3638L20.5818 4.6362L18.7636 4.6362ZM15.1273 7.3992L15.1273 20.2008L14.2182 21L10.5818 21L9.67274 20.2008L9.67274 7.3992L10.5818 6.6L14.2182 6.6L15.1273 7.3992ZM11.4909 8.2002L11.4909 19.398L13.3091 19.398L13.3091 8.1984L11.4909 8.1984L11.4909 8.2002ZM7.85455 20.2278L7.85456 10.9704L6.94546 10.2L3.3091 10.2L2.40001 10.9704L2.40001 20.2278L3.3091 21L6.94546 21L7.85455 20.2278ZM4.21819 19.4574L4.21819 11.7426L6.03637 11.7426L6.03637 19.4574L4.21819 19.4574Z" fill="#A2A2A2"/>
</svg>
